<mxfile host="app.diagrams.net" modified="2020-04-14T12:13:12.499Z" agent="Mozilla/5.0 (Windows NT 6.1; Win64; x64) AppleWebKit/537.36 (KHTML, like Gecko) Chrome/80.0.3987.163 Safari/537.36" etag="LpbA_TpeV7CvbVu-hmZP" version="12.9.0" type="github">
  <diagram id="OGn64PBh9Zdr8OGnZs2C" name="Page-1">
    <mxGraphModel dx="1185" dy="635" grid="1" gridSize="10" guides="1" tooltips="1" connect="1" arrows="1" fold="1" page="1" pageScale="1" pageWidth="850" pageHeight="1100" math="0" shadow="0">
      <root>
        <mxCell id="0" />
        <mxCell id="1" parent="0" />
        <mxCell id="gZ8U1AVNbdteoeiocQ5B-48" value="" style="rounded=1;whiteSpace=wrap;html=1;shadow=0;comic=0;fillColor=#f5f5f5;strokeColor=#666666;fontColor=#333333;" vertex="1" parent="1">
          <mxGeometry x="40" y="30" width="1000" height="410" as="geometry" />
        </mxCell>
        <mxCell id="gZ8U1AVNbdteoeiocQ5B-24" value="&lt;ul&gt;&lt;li&gt;&lt;span&gt;Enterprise Application Data&lt;/span&gt;&lt;/li&gt;&lt;/ul&gt;&lt;div&gt;&lt;br&gt;&lt;/div&gt;&lt;ul&gt;&lt;li&gt;&lt;span&gt;3rd Party Application Data&lt;/span&gt;&lt;/li&gt;&lt;/ul&gt;&lt;div&gt;&lt;br&gt;&lt;/div&gt;&lt;ul&gt;&lt;li&gt;&lt;span&gt;Public Data&lt;/span&gt;&lt;/li&gt;&lt;/ul&gt;" style="rounded=0;whiteSpace=wrap;html=1;shadow=1;comic=0;align=left;" vertex="1" parent="1">
          <mxGeometry x="80" y="120" width="180" height="200" as="geometry" />
        </mxCell>
        <mxCell id="gZ8U1AVNbdteoeiocQ5B-26" value="Data Sources" style="rounded=0;whiteSpace=wrap;html=1;shadow=1;comic=0;fillColor=#8FA0B3;fontColor=#FFFFFF;fontStyle=1" vertex="1" parent="1">
          <mxGeometry x="80" y="70" width="180" height="30" as="geometry" />
        </mxCell>
        <mxCell id="gZ8U1AVNbdteoeiocQ5B-27" value="Raw Data Store" style="rounded=0;whiteSpace=wrap;html=1;shadow=0;comic=0;" vertex="1" parent="1">
          <mxGeometry x="323" y="120" width="120" height="200" as="geometry" />
        </mxCell>
        <mxCell id="gZ8U1AVNbdteoeiocQ5B-28" value="" style="shape=flexArrow;endArrow=classic;html=1;shadow=1;entryX=0;entryY=0.5;entryDx=0;entryDy=0;fillColor=#f5f5f5;strokeColor=#666666;gradientColor=#b3b3b3;" edge="1" parent="1" target="gZ8U1AVNbdteoeiocQ5B-27">
          <mxGeometry width="50" height="50" relative="1" as="geometry">
            <mxPoint x="260" y="220" as="sourcePoint" />
            <mxPoint x="310" y="170" as="targetPoint" />
          </mxGeometry>
        </mxCell>
        <mxCell id="gZ8U1AVNbdteoeiocQ5B-29" value="Batch Processing" style="rounded=0;whiteSpace=wrap;html=1;shadow=0;comic=0;" vertex="1" parent="1">
          <mxGeometry x="523" y="130" width="120" height="70" as="geometry" />
        </mxCell>
        <mxCell id="gZ8U1AVNbdteoeiocQ5B-30" value="Machine Learning &amp;amp; Advance Analytics" style="rounded=0;whiteSpace=wrap;html=1;shadow=0;comic=0;" vertex="1" parent="1">
          <mxGeometry x="523" y="240" width="120" height="70" as="geometry" />
        </mxCell>
        <mxCell id="gZ8U1AVNbdteoeiocQ5B-31" value="&lt;font style=&quot;font-size: 12px&quot;&gt;Analytical Data Store&lt;/font&gt;" style="rounded=0;whiteSpace=wrap;html=1;shadow=0;comic=0;" vertex="1" parent="1">
          <mxGeometry x="723" y="120" width="120" height="200" as="geometry" />
        </mxCell>
        <mxCell id="gZ8U1AVNbdteoeiocQ5B-32" value="&lt;font style=&quot;font-size: 12px&quot;&gt;Reporting and Analytics&lt;/font&gt;" style="rounded=0;whiteSpace=wrap;html=1;shadow=0;comic=0;" vertex="1" parent="1">
          <mxGeometry x="923" y="120" width="80" height="200" as="geometry" />
        </mxCell>
        <mxCell id="gZ8U1AVNbdteoeiocQ5B-33" value="&lt;font style=&quot;font-size: 16px&quot;&gt;Orchestration Services&lt;/font&gt;" style="rounded=0;whiteSpace=wrap;html=1;shadow=0;comic=0;fillColor=#dae8fc;strokeColor=#6c8ebf;" vertex="1" parent="1">
          <mxGeometry x="80" y="340" width="920" height="30" as="geometry" />
        </mxCell>
        <mxCell id="gZ8U1AVNbdteoeiocQ5B-34" value="" style="shape=flexArrow;endArrow=classic;html=1;shadow=1;fillColor=#f5f5f5;strokeColor=#666666;gradientColor=#b3b3b3;" edge="1" parent="1">
          <mxGeometry width="50" height="50" relative="1" as="geometry">
            <mxPoint x="443" y="164.57999999999998" as="sourcePoint" />
            <mxPoint x="523" y="165" as="targetPoint" />
          </mxGeometry>
        </mxCell>
        <mxCell id="gZ8U1AVNbdteoeiocQ5B-35" value="" style="shape=flexArrow;endArrow=classic;html=1;shadow=1;fillColor=#f5f5f5;strokeColor=#666666;gradientColor=#b3b3b3;" edge="1" parent="1">
          <mxGeometry width="50" height="50" relative="1" as="geometry">
            <mxPoint x="443" y="274.5799999999999" as="sourcePoint" />
            <mxPoint x="523" y="275" as="targetPoint" />
          </mxGeometry>
        </mxCell>
        <mxCell id="gZ8U1AVNbdteoeiocQ5B-36" value="" style="shape=flexArrow;endArrow=classic;html=1;shadow=1;fillColor=#f5f5f5;strokeColor=#666666;gradientColor=#b3b3b3;" edge="1" parent="1">
          <mxGeometry width="50" height="50" relative="1" as="geometry">
            <mxPoint x="643" y="164.57999999999993" as="sourcePoint" />
            <mxPoint x="723" y="165" as="targetPoint" />
          </mxGeometry>
        </mxCell>
        <mxCell id="gZ8U1AVNbdteoeiocQ5B-37" value="" style="shape=flexArrow;endArrow=classic;html=1;shadow=1;fillColor=#f5f5f5;strokeColor=#666666;gradientColor=#b3b3b3;" edge="1" parent="1">
          <mxGeometry width="50" height="50" relative="1" as="geometry">
            <mxPoint x="643" y="274.5799999999999" as="sourcePoint" />
            <mxPoint x="723" y="275" as="targetPoint" />
          </mxGeometry>
        </mxCell>
        <mxCell id="gZ8U1AVNbdteoeiocQ5B-38" value="" style="shape=flexArrow;endArrow=classic;html=1;shadow=1;fillColor=#f5f5f5;strokeColor=#666666;gradientColor=#b3b3b3;" edge="1" parent="1">
          <mxGeometry width="50" height="50" relative="1" as="geometry">
            <mxPoint x="843" y="219.58" as="sourcePoint" />
            <mxPoint x="923" y="220" as="targetPoint" />
          </mxGeometry>
        </mxCell>
        <mxCell id="gZ8U1AVNbdteoeiocQ5B-39" value="" style="shape=flexArrow;endArrow=classic;html=1;shadow=1;fillColor=#f5f5f5;strokeColor=#666666;gradientColor=#b3b3b3;exitX=0.5;exitY=0;exitDx=0;exitDy=0;entryX=0.5;entryY=1;entryDx=0;entryDy=0;width=13.333333333333334;endSize=4.7250000000000005;" edge="1" parent="1" source="gZ8U1AVNbdteoeiocQ5B-30" target="gZ8U1AVNbdteoeiocQ5B-29">
          <mxGeometry width="50" height="50" relative="1" as="geometry">
            <mxPoint x="573" y="219.57999999999993" as="sourcePoint" />
            <mxPoint x="653" y="220" as="targetPoint" />
          </mxGeometry>
        </mxCell>
        <mxCell id="gZ8U1AVNbdteoeiocQ5B-43" value="Ingest" style="rounded=0;whiteSpace=wrap;html=1;shadow=1;comic=0;fillColor=#8FA0B3;fontColor=#FFFFFF;fontStyle=1" vertex="1" parent="1">
          <mxGeometry x="323" y="70" width="117" height="30" as="geometry" />
        </mxCell>
        <mxCell id="gZ8U1AVNbdteoeiocQ5B-44" value="Analyze" style="rounded=0;whiteSpace=wrap;html=1;shadow=1;comic=0;fillColor=#8FA0B3;fontStyle=1;fontColor=#FFFFFF;" vertex="1" parent="1">
          <mxGeometry x="523" y="70" width="117" height="30" as="geometry" />
        </mxCell>
        <mxCell id="gZ8U1AVNbdteoeiocQ5B-45" value="Result" style="rounded=0;whiteSpace=wrap;html=1;shadow=1;comic=0;fillColor=#8FA0B3;fontStyle=1;fontColor=#FFFFFF;" vertex="1" parent="1">
          <mxGeometry x="723" y="70" width="117" height="30" as="geometry" />
        </mxCell>
        <mxCell id="gZ8U1AVNbdteoeiocQ5B-46" value="Act" style="rounded=0;whiteSpace=wrap;html=1;shadow=1;comic=0;fillColor=#8FA0B3;fontStyle=1;fontColor=#FFFFFF;" vertex="1" parent="1">
          <mxGeometry x="923" y="70" width="77" height="30" as="geometry" />
        </mxCell>
        <mxCell id="gZ8U1AVNbdteoeiocQ5B-47" value="&lt;font style=&quot;font-size: 16px&quot;&gt;Authentication Services&lt;/font&gt;" style="rounded=0;whiteSpace=wrap;html=1;shadow=0;comic=0;fillColor=#1ba1e2;strokeColor=#006EAF;fontColor=#ffffff;" vertex="1" parent="1">
          <mxGeometry x="80" y="380" width="920" height="30" as="geometry" />
        </mxCell>
      </root>
    </mxGraphModel>
  </diagram>
</mxfile>
